<svg version="1.2" xmlns="http://www.w3.org/2000/svg" width="140" height="62"><style>.s0{fill:#ed8c2b}.s1{fill:#fff}</style><path id="Layer" class="s0" d="M58.7 3.1H1.8v56.8h56.9zM88.6 7.8H65.4v5.1h23.2zm-18 20.7h13.2v-5.1H65.4v22.1h5.2z"/><path id="Layer" fill-rule="evenodd" class="s0" d="M89.7 45.5v-5.1H94V12.9h-4.3V7.8h15.9c5.9 0 10.5 4.5 10.5 10.5 0 5.1-4.3 7.2-4.3 7.2s5.4 2.7 5.4 8.9-4.9 11.1-11.1 11.1zm9.5-21.8h6.4c3.3 0 5.4-2.2 5.4-5.4 0-3.3-2.1-5.4-5.4-5.4h-6.4zm0 16.7h7c3.5 0 5.9-2.4 5.9-5.9 0-3.5-2.4-6-5.9-6h-7z"/><path id="Layer" class="s1" d="M69.1 49.8c.5 0 .6-.1.6-.2s-.1-.3-.2-.4c-.1.1-.3.1-.7.1h-2.1c-.4 0-.9 0-1.3.1.1.5.1.8.1 1.3v4.6c0 .5.2.6.4.6.1 0 .4 0 .6-.1-.1-.2-.1-.4-.1-.8v-2.2q.3-.1.6 0h1.8c.5 0 .6-.1.6-.3 0-.1 0-.2-.1-.3h-2.9V49.8h.5z"/><path id="Layer" fill-rule="evenodd" class="s1" d="M76.2 51.3c1.3 0 2.2.9 2.2 2.2 0 1.4-1 2.4-2.3 2.4-1.3 0-2.1-.9-2.1-2.2 0-1.4.9-2.4 2.2-2.4zm0 4.1c.7 0 1.2-.7 1.2-1.8 0-1-.5-1.8-1.3-1.8-.7 0-1.2.7-1.2 1.8s.5 1.8 1.3 1.8z"/><path id="Layer" class="s1" d="M84.1 52.6v-1.3c-.4 0-.8.1-.9.1.1.6.1.9.1 1.4v1.7c0 .8.6 1.4 1.4 1.4.8 0 1.5-.6 1.7-1.2v.6c0 .5.1.6.3.6.2 0 .5 0 .7-.1-.1-.2-.2-.4-.2-.8v-3.7c-.4 0-.7.1-.9.1.1.5.1.9.1 1.4v1c0 .7-.6 1.6-1.4 1.6-.5 0-.9-.5-.9-1.1zM92.4 55.3c0 .5.2.6.4.6q.3 0 .6-.1-.1-.2-.1-.8v-1.3c0-.9.5-1.9 1.1-1.9.2 0 .5.3.5.8.4 0 .6-.1.6-.4 0-.4-.3-.9-.8-.9-.7 0-1.2.6-1.4 1.3v-.2q0-.5-.1-1.1c-.4 0-.7.1-.9.1.1.6.1.9.1 1.4z"/><path id="Layer" fill-rule="evenodd" class="s1" d="M103.9 52.4c.8.2 1.3.8 1.3 1.6 0 1.1-.9 1.9-2.1 1.9h-2.5c0-.1-.1-.3-.1-.5v-4.7c0-.4 0-.8-.1-1.3.2 0 .6-.1.9-.1h1.7c1.1 0 1.9.7 1.9 1.6 0 .7-.4 1.2-1 1.5zm-2.5 2.9h1.5c.8 0 1.3-.5 1.3-1.3 0-.7-.5-1.3-1.3-1.3h-1.5V55.3zm2.5-4.3c0-.7-.5-1.2-1.2-1.2h-1.3V52.2h1.3c.7 0 1.2-.5 1.2-1.2z"/><path id="Layer" class="s1" d="M110.1 55.3c0 .5.2.6.3.6.2 0 .5 0 .7-.1-.1-.2-.2-.4-.2-.8v-3.7c-.4 0-.7.1-.9.1.1.5.1.9.1 1.4zm-.1-5.6c0 .3.2.5.5.5s.5-.2.5-.5-.2-.5-.5-.5-.5.2-.5.5zM118.5 55.3c.4.5.7.6.9.6.2 0 .5 0 .6-.2-.2-.1-.4-.2-.8-.7l-1.4-1.5.8-.9c.4-.4.8-.9 1.1-1.3q-.6.1-.9.1c-.5.6-.7.9-1.2 1.3l-.6.7v-3.3q0-.5-.1-1.1c-.4 0-.7.1-.8.1 0 .6.1.9.1 1.4v4.8c0 .5.1.6.3.6q.3 0 .6-.1-.1-.2-.1-.8v-1.3z"/><path id="Layer" fill-rule="evenodd" class="s1" d="M126.3 51.3c1.2 0 1.9.8 1.9 1.9 0 .2-.1.3-.2.4h-2.9c0 1.1.6 1.8 1.4 1.8.9 0 1.2-.6 1.3-.6q.1 0 .2.1l.2.1c-.4.5-1 .9-1.8.9-1.4 0-2.2-.9-2.2-2.2 0-1.4.8-2.4 2.1-2.4zm-1.2 1.9h2.3c-.1-.9-.5-1.4-1.1-1.4-.6 0-1.1.6-1.2 1.4z"/><path id="Layer" class="s1" d="M133.5 54.7q-.6 0-.6.4c0 .3.5.8 1.5.8 1.1 0 1.7-.5 1.7-1.3 0-1.4-2.3-1.1-2.3-2.1 0-.4.3-.7.8-.7.4 0 .7.3.8.6.4 0 .6-.1.6-.3 0-.3-.5-.8-1.5-.8s-1.6.6-1.6 1.2c0 1.4 2.4 1.2 2.4 2.2 0 .4-.4.7-.9.7-.4 0-.8-.3-.9-.7z"/><path id="Layer" fill-rule="evenodd" d="M34.1 16.1h5.6v16.8h2.7v5.6h-2.7V44h-5.6v-5.5H17.3v-5.6zm0 7.2-9.7 9.6h9.7z" style="fill:#000"/></svg>