<svg version="1.2" xmlns="http://www.w3.org/2000/svg" viewBox="0 0 140 62" width="140" height="62">
	<title>logo-svg</title>
	<style>
		.s0 { fill: #ed8c2b } 
		.s1 { fill: #ffffff } 
		.s2 { fill: #000000 } 
	</style>
	<path id="Layer" class="s0" d="m58.7 3.1h-56.9v56.8h56.9z"/>
	<path id="Layer" class="s0" d="m88.6 7.8h-23.2v5.1h23.2zm-18 20.7h13.2v-5.1h-18.4v22.1h5.2z"/>
	<path id="Layer" fill-rule="evenodd" class="s0" d="m89.7 45.5v-5.1h4.3v-27.5h-4.3v-5.1h15.9c5.9 0 10.5 4.5 10.5 10.5 0 5.1-4.3 7.2-4.3 7.2 0 0 5.4 2.7 5.4 8.9 0 6.2-4.9 11.1-11.1 11.1zm9.5-21.8h6.4c3.3 0 5.4-2.2 5.4-5.4 0-3.3-2.1-5.4-5.4-5.4h-6.4zm0 16.7h7c3.5 0 5.9-2.4 5.9-5.9 0-3.5-2.4-6-5.9-6h-7z"/>
	<path id="Layer" class="s1" d="m69.1 49.8c0.5 0 0.6-0.1 0.6-0.2 0-0.1-0.1-0.3-0.2-0.4-0.1 0.1-0.3 0.1-0.7 0.1h-2.1c-0.4 0-0.9 0-1.3 0.1 0.1 0.5 0.1 0.8 0.1 1.3v4.6c0 0.5 0.2 0.6 0.4 0.6 0.1 0 0.4 0 0.6-0.1-0.1-0.2-0.1-0.4-0.1-0.8v-2.2q0.3-0.1 0.6 0h1.8c0.5 0 0.6-0.1 0.6-0.3 0-0.1 0-0.2-0.1-0.3q-0.2 0-0.7 0h-1.8q-0.2 0-0.4 0v-1.6q0-0.4 0-0.8 0.2 0 0.5 0z"/>
	<path id="Layer" fill-rule="evenodd" class="s1" d="m76.2 51.3c1.3 0 2.2 0.9 2.2 2.2 0 1.4-1 2.4-2.3 2.4-1.3 0-2.1-0.9-2.1-2.2 0-1.4 0.9-2.4 2.2-2.4zm0 4.1c0.7 0 1.2-0.7 1.2-1.8 0-1-0.5-1.8-1.3-1.8-0.7 0-1.2 0.7-1.2 1.8 0 1.1 0.5 1.8 1.3 1.8z"/>
	<path id="Layer" class="s1" d="m84.1 52.6c0-0.4 0-0.9 0-1.3-0.4 0-0.8 0.1-0.9 0.1 0.1 0.6 0.1 0.9 0.1 1.4v1.7c0 0.8 0.6 1.4 1.4 1.4 0.8 0 1.5-0.6 1.7-1.2v0.6c0 0.5 0.1 0.6 0.3 0.6 0.2 0 0.5 0 0.7-0.1-0.1-0.2-0.2-0.4-0.2-0.8v-2.4c0-0.4 0-0.9 0-1.3-0.4 0-0.7 0.1-0.9 0.1 0.1 0.5 0.1 0.9 0.1 1.4v1c0 0.7-0.6 1.6-1.4 1.6-0.5 0-0.9-0.5-0.9-1.1z"/>
	<path id="Layer" class="s1" d="m92.4 55.3c0 0.5 0.2 0.6 0.4 0.6q0.3 0 0.6-0.1-0.1-0.2-0.1-0.8v-1.3c0-0.9 0.5-1.9 1.1-1.9 0.2 0 0.5 0.3 0.5 0.8 0.4 0 0.6-0.1 0.6-0.4 0-0.4-0.3-0.9-0.8-0.9-0.7 0-1.2 0.6-1.4 1.3v-0.2q0-0.5-0.1-1.1c-0.4 0-0.7 0.1-0.9 0.1 0.1 0.6 0.1 0.9 0.1 1.4z"/>
	<path id="Layer" fill-rule="evenodd" class="s1" d="m103.9 52.4c0.8 0.2 1.3 0.8 1.3 1.6 0 1.1-0.9 1.9-2.1 1.9h-1.2c-0.4 0-0.8 0-1.3 0 0-0.1-0.1-0.3-0.1-0.5v-4.7c0-0.4 0-0.8-0.1-1.3 0.2 0 0.6-0.1 0.9-0.1h1.7c1.1 0 1.9 0.7 1.9 1.6 0 0.7-0.4 1.2-1 1.5zm-2.5 2.9q0.2 0 0.4 0h1.1c0.8 0 1.3-0.5 1.3-1.3 0-0.7-0.5-1.3-1.3-1.3h-1.5v2.3q0 0.2 0 0.3zm2.5-4.3c0-0.7-0.5-1.2-1.2-1.2h-1.3q0 0.4 0 0.8v1.6h1.3c0.7 0 1.2-0.5 1.2-1.2z"/>
	<path id="Layer" class="s1" d="m110.1 55.3c0 0.5 0.2 0.6 0.3 0.6 0.2 0 0.5 0 0.7-0.1-0.1-0.2-0.2-0.4-0.2-0.8v-2.4c0-0.4 0-0.9 0-1.3-0.4 0-0.7 0.1-0.9 0.1 0.1 0.5 0.1 0.9 0.1 1.4zm-0.1-5.6c0 0.3 0.2 0.5 0.5 0.5 0.3 0 0.5-0.2 0.5-0.5 0-0.3-0.2-0.5-0.5-0.5-0.3 0-0.5 0.2-0.5 0.5z"/>
	<path id="Layer" class="s1" d="m118.5 55.3c0.4 0.5 0.7 0.6 0.9 0.6 0.2 0 0.5 0 0.6-0.2-0.2-0.1-0.4-0.2-0.8-0.7l-1.4-1.5 0.8-0.9c0.4-0.4 0.8-0.9 1.1-1.3q-0.6 0.1-0.9 0.1c-0.5 0.6-0.7 0.9-1.2 1.3l-0.6 0.7v-3.3q0-0.5-0.1-1.1c-0.4 0-0.7 0.1-0.8 0.1 0 0.6 0.1 0.9 0.1 1.4v4.8c0 0.5 0.1 0.6 0.3 0.6q0.3 0 0.6-0.1-0.1-0.2-0.1-0.8v-1.3z"/>
	<path id="Layer" fill-rule="evenodd" class="s1" d="m126.3 51.3c1.2 0 1.9 0.8 1.9 1.9 0 0.2-0.1 0.3-0.2 0.4h-2.9c0 1.1 0.6 1.8 1.4 1.8 0.9 0 1.2-0.6 1.3-0.6q0.1 0 0.2 0.1l0.2 0.1c-0.4 0.5-1 0.9-1.8 0.9-1.4 0-2.2-0.9-2.2-2.2 0-1.4 0.8-2.4 2.1-2.4zm-1.2 1.9h2.3c-0.1-0.9-0.5-1.4-1.1-1.4-0.6 0-1.1 0.6-1.2 1.4z"/>
	<path id="Layer" class="s1" d="m133.5 54.7q-0.6 0-0.6 0.4c0 0.3 0.5 0.8 1.5 0.8 1.1 0 1.7-0.5 1.7-1.3 0-1.4-2.3-1.1-2.3-2.1 0-0.4 0.3-0.7 0.8-0.7 0.4 0 0.7 0.3 0.8 0.6 0.4 0 0.6-0.1 0.6-0.3 0-0.3-0.5-0.8-1.5-0.8-1 0-1.6 0.6-1.6 1.2 0 1.4 2.4 1.2 2.4 2.2 0 0.4-0.4 0.7-0.9 0.7-0.4 0-0.8-0.3-0.9-0.7z"/>
	<path id="Layer" fill-rule="evenodd" class="s2" d="m34.1 16.1h5.6v16.8h2.7v5.6h-2.7v5.5h-5.6v-5.5h-16.8v-5.6zm0 7.2l-9.7 9.6h9.7z"/>
</svg>