<svg width="203" height="183" viewBox="0 0 203 183" fill="none" xmlns="http://www.w3.org/2000/svg">
<path d="M100.688 38.0801H43.8481V94.9201H100.688V38.0801Z" fill="#ED8C2B"/>
<path d="M130.61 42.7612H107.436V47.8809H130.61V42.7612ZM112.555 63.5119H125.758V58.3922H107.436V80.4868H112.555V63.5119Z" fill="#ED8C2B"/>
<path d="M148.125 80.4868C154.325 80.4868 159.172 75.6351 159.172 69.4395C159.172 63.2399 153.785 60.544 153.785 60.544C153.785 60.544 158.096 58.3922 158.096 53.2685C158.096 47.3409 153.517 42.7612 147.585 42.7612H131.686V47.8809H135.998V75.3671H131.686V80.4868H138.588H148.125ZM141.117 47.8809H147.585C150.821 47.8809 152.977 50.0368 152.977 53.2685C152.977 56.5043 150.821 58.6602 147.585 58.6602H141.117V47.8809ZM141.117 63.5119H148.125C151.629 63.5119 154.053 65.9357 154.053 69.4395C154.053 72.9433 151.629 75.3671 148.125 75.3671H141.117V63.5119Z" fill="#ED8C2B"/>
<path d="M111.094 84.8351C111.581 84.8351 111.662 84.7417 111.662 84.6118C111.662 84.5062 111.634 84.3479 111.54 84.2261C111.423 84.3032 111.195 84.3113 110.822 84.3113H108.731C108.292 84.3113 107.825 84.3316 107.432 84.3763C107.505 84.9 107.525 85.2451 107.525 85.712V90.308C107.525 90.8033 107.683 90.8885 107.882 90.8885C108.041 90.8885 108.309 90.852 108.508 90.7586C108.414 90.6449 108.402 90.4216 108.402 90.0481V87.7583C108.581 87.7502 108.759 87.7502 108.954 87.7502H110.834C111.317 87.7502 111.402 87.6568 111.402 87.535C111.402 87.4335 111.374 87.2751 111.281 87.1615C111.167 87.2183 110.935 87.2264 110.562 87.2264H108.816C108.674 87.2264 108.536 87.2264 108.402 87.2345V85.574C108.402 85.3101 108.394 85.0787 108.374 84.8432C108.536 84.8351 108.694 84.8351 108.869 84.8351H111.094Z" fill="white"/>
<path d="M115.99 88.6758C115.99 89.9994 116.839 90.8967 118.081 90.8967C119.437 90.8967 120.351 89.9344 120.351 88.5419C120.351 87.2183 119.502 86.321 118.248 86.321C116.904 86.321 115.99 87.2833 115.99 88.6758ZM116.904 88.5825C116.904 87.5431 117.399 86.8326 118.138 86.8326C118.905 86.8326 119.425 87.5634 119.425 88.6352C119.425 89.6746 118.93 90.3851 118.195 90.3851C117.427 90.3851 116.904 89.6543 116.904 88.5825Z" fill="white"/>
<path d="M126.124 87.6283C126.124 87.1898 126.108 86.7229 126.059 86.3291C125.706 86.3291 125.34 86.3778 125.182 86.4225C125.255 86.9543 125.276 87.2994 125.276 87.7582V89.4797C125.276 90.2998 125.852 90.8966 126.656 90.8966C127.545 90.8966 128.162 90.3282 128.377 89.7395V90.3079C128.377 90.8032 128.544 90.8885 128.731 90.8885C128.909 90.8885 129.181 90.8519 129.384 90.7586C129.254 90.6449 129.226 90.4216 129.226 90.0481V87.6283C129.226 87.1898 129.218 86.7229 129.181 86.3291C128.824 86.3291 128.487 86.3656 128.321 86.4062C128.365 86.9259 128.377 87.2994 128.377 87.7704V88.7692C128.377 89.504 127.776 90.385 127.042 90.385C126.518 90.385 126.124 89.9344 126.124 89.2807V87.6283Z" fill="white"/>
<path d="M134.439 90.308C134.439 90.8033 134.597 90.8885 134.792 90.8885C134.991 90.8885 135.186 90.8682 135.372 90.7749C135.316 90.6652 135.287 90.4216 135.287 90.0481V88.7205C135.307 87.8435 135.774 86.8326 136.355 86.8326C136.635 86.8326 136.858 87.1412 136.875 87.5918C137.305 87.5918 137.549 87.4984 137.549 87.2345C137.549 86.8164 137.232 86.321 136.68 86.321C135.961 86.321 135.466 86.926 135.287 87.5796V87.3929C135.287 87.0478 135.251 86.6864 135.178 86.3292C134.82 86.3292 134.504 86.3779 134.345 86.4225C134.418 86.9544 134.439 87.2995 134.439 87.7705V90.308Z" fill="white"/>
<path d="M146.854 85.919C146.854 84.9649 146.115 84.3113 145.015 84.3113H143.33C142.957 84.3113 142.583 84.36 142.425 84.3965C142.502 84.9284 142.518 85.2735 142.518 85.7404V90.3932C142.518 90.588 142.555 90.7951 142.603 90.9169C143.135 90.8601 143.48 90.8519 143.947 90.8519H145.06C146.302 90.8519 147.151 90.1211 147.151 89.0493C147.151 88.2454 146.655 87.6283 145.884 87.405C146.481 87.133 146.854 86.6092 146.854 85.919ZM143.395 90.0481V87.7014H144.881C145.669 87.7014 146.209 88.2617 146.209 89.0371C146.209 89.8045 145.685 90.3282 144.91 90.3282H143.809C143.667 90.3282 143.529 90.3282 143.395 90.3363C143.387 90.2551 143.395 90.1617 143.395 90.0481ZM144.743 87.1898H143.395V85.6024C143.395 85.3506 143.387 85.0867 143.379 84.835H144.715C145.425 84.835 145.908 85.3222 145.908 86.0205C145.908 86.7229 145.441 87.1898 144.743 87.1898Z" fill="white"/>
<path d="M152.096 90.3079C152.096 90.8032 152.254 90.8885 152.449 90.8885C152.615 90.8885 152.896 90.852 153.103 90.7586C152.973 90.6449 152.944 90.4216 152.944 90.0481V87.6283C152.944 87.1898 152.924 86.7229 152.879 86.3291C152.522 86.3291 152.161 86.3778 152.002 86.4225C152.075 86.9462 152.096 87.2995 152.096 87.7704V90.3079ZM151.99 84.7701C151.99 85.0421 152.177 85.237 152.457 85.237C152.766 85.237 152.981 85.0218 152.981 84.7214C152.981 84.4412 152.786 84.2463 152.514 84.2463C152.205 84.2463 151.99 84.4696 151.99 84.7701Z" fill="white"/>
<path d="M160.512 90.2917C160.894 90.8033 161.166 90.8804 161.409 90.8804C161.604 90.8804 161.864 90.852 162.014 90.7464C161.799 90.6368 161.633 90.4582 161.231 90.0197L159.81 88.4688L160.634 87.5999C161.016 87.1696 161.389 86.7311 161.669 86.3494C161.324 86.3494 161.024 86.3657 160.821 86.3941C160.297 87.0031 160.053 87.3117 159.643 87.7298L159.006 88.3957V85.1071C159.006 84.762 158.969 84.3966 158.896 84.0393C158.539 84.0393 158.222 84.088 158.064 84.1327C158.137 84.6686 158.157 85.0137 158.157 85.4806V90.3079C158.157 90.8033 158.316 90.8885 158.511 90.8885C158.71 90.8885 158.904 90.8682 159.091 90.7748C159.034 90.6652 159.006 90.4216 159.006 90.0481V88.6636L160.512 90.2917Z" fill="white"/>
<path d="M166.172 88.6637C166.172 89.9913 167.02 90.8967 168.368 90.8967C169.16 90.8967 169.834 90.5231 170.163 89.975L170.029 89.8979C169.964 89.8532 169.891 89.8248 169.834 89.8248C169.668 89.8248 169.432 90.3851 168.519 90.3851C167.658 90.3851 167.089 89.6746 167.069 88.6352H170.041C170.143 88.5256 170.208 88.4119 170.208 88.2252C170.208 87.0762 169.525 86.321 168.303 86.321C167.041 86.321 166.172 87.2751 166.172 88.6637ZM168.275 86.8326C168.908 86.8326 169.31 87.3117 169.375 88.1683H167.098C167.207 87.3563 167.658 86.8326 168.275 86.8326Z" fill="white"/>
<path d="M175.485 89.7193C175.091 89.7193 174.868 89.8329 174.868 90.0684C174.868 90.4135 175.42 90.8967 176.439 90.8967C177.503 90.8967 178.128 90.3932 178.128 89.6462C178.128 88.2089 175.765 88.4769 175.765 87.4984C175.765 87.1249 176.111 86.8326 176.569 86.8326C176.951 86.8326 177.26 87.0681 177.389 87.3929C177.791 87.3929 178.007 87.3279 178.007 87.1127C178.007 86.7879 177.467 86.321 176.549 86.321C175.514 86.321 174.945 86.8732 174.945 87.5431C174.945 88.891 177.28 88.6555 177.28 89.7111C177.28 90.1334 176.906 90.3851 176.419 90.3851C175.96 90.3851 175.627 90.1334 175.485 89.7193Z" fill="white"/>
<path d="M59.3247 67.9048V73.4589H76.0641V79.0495H81.6547V73.4589H84.4114V67.9048H81.6547V51.0842H76.0641L59.3247 67.9048ZM76.0641 67.9048H66.316L76.0641 58.2339V67.9048Z" fill="black"/>
</svg>
